<svg xmlns="http://www.w3.org/2000/svg" width="1135.000000pt" height="995.000000pt" viewBox="0 0 1135.000000 995.000000" preserveAspectRatio="xMidYMid meet"><metadata>
Created by potrace 1.16, written by Peter Selinger 2001-2019
</metadata><g transform="translate(0.000000,995.000000) scale(0.100000,-0.100000)" fill="#000000" stroke="none"><path d="M5588 9917 c-27 -20 -53 -53 -72 -89 -24 -49 -28 -69 -28 -135 1 -43 7 -99 15 -124 l14 -46 -34 -18 c-44 -24 -126 -111 -152 -164 -58 -112 -41 -276 50 -478 22 -49 25 -63 14 -63 -9 0 -15 -10 -15 -25 0 -24 -1 -24 -97 -27 l-98 -3 -32 -53 c-57 -96 -53 -179 14 -253 l35 -39 89 0 89 0 0 -384 0 -384 -217 -170 c-120 -93 -228 -175 -240 -183 -21 -13 -26 -10 -84 46 -77 76 -171 200 -210 277 -36 71 -69 194 -69 255 0 77 30 193 89 348 32 83 63 171 70 197 23 95 8 202 -38 267 -13 17 -20 31 -16 31 3 0 -10 14 -30 31 -34 30 -36 31 -61 14 -16 -10 -1 13 39 62 175 211 322 481 416 760 38 116 74 254 67 261 -3 3 -79 -32 -169 -77 -285 -142 -526 -317 -732 -533 -69 -72 -102 -101 -91 -80 48 93 164 455 154 482 -2 5 -68 -21 -148 -59 -453 -212 -755 -460 -925 -761 -20 -36 -38 -67 -40 -69 -2 -1 -27 5 -55 14 -28 9 -54 14 -57 11 -3 -3 4 -28 16 -55 11 -27 21 -52 21 -54 0 -2 -40 -8 -88 -11 -80 -7 -95 -5 -156 18 -36 14 -77 32 -89 41 -26 18 -49 19 -64 4 -9 -9 -7 -21 8 -50 14 -28 16 -39 7 -39 -121 0 -405 47 -518 85 -40 14 -75 25 -76 25 -2 0 -8 -9 -14 -20 -9 -17 -4 -27 31 -65 l42 -45 -229 0 c-429 0 -839 39 -1224 116 -170 34 -323 75 -523 141 -93 30 -170 53 -173 51 -9 -10 51 -172 105 -283 164 -337 445 -594 821 -751 44 -19 50 -23 28 -24 -42 0 -325 38 -406 55 -118 24 -116 26 -91 -42 72 -198 200 -409 336 -552 154 -164 361 -296 560 -357 48 -15 92 -31 98 -35 15 -15 -332 -10 -449 6 -61 8 -112 12 -115 10 -7 -8 27 -100 72 -193 51 -103 146 -224 232 -295 52 -43 202 -138 237 -149 5 -2 -1 -48 -11 -103 -31 -158 -44 -327 -39 -477 4 -100 2 -138 -6 -134 -50 21 -266 105 -283 111 -29 8 -29 2 -3 -123 78 -383 260 -749 526 -1059 l37 -43 -74 31 c-88 36 -265 90 -369 113 -117 25 -313 56 -319 51 -14 -14 162 -327 294 -525 306 -457 671 -802 1029 -975 107 -51 260 -106 338 -120 37 -7 38 -8 38 -54 0 -25 5 -75 10 -111 5 -35 7 -66 5 -68 -2 -2 -50 5 -107 16 -139 28 -304 44 -416 40 l-93 -3 182 -225 c289 -357 382 -464 559 -641 228 -228 411 -361 637 -464 86 -39 90 -42 70 -54 -57 -35 -177 -125 -175 -132 6 -14 162 -139 243 -194 100 -67 244 -143 343 -181 l72 -28 -26 -27 c-43 -45 -116 -69 -298 -99 -271 -45 -373 -89 -497 -211 -75 -74 -144 -184 -190 -303 -32 -84 -85 -273 -78 -280 2 -3 16 -7 31 -11 24 -6 28 -3 46 37 24 54 74 113 123 144 59 37 141 60 329 93 210 36 287 59 403 118 149 77 271 206 370 392 l45 83 193 2 c159 2 213 7 299 25 138 30 281 78 418 139 111 50 335 175 388 217 l27 22 -40 36 c-46 42 -161 135 -180 145 -9 6 -10 24 -1 82 16 116 4 425 -21 540 -78 353 -235 659 -513 1002 -92 114 -438 468 -456 468 -18 0 -27 -149 -27 -455 0 -318 8 -420 51 -633 44 -219 141 -478 244 -650 l32 -53 -28 8 c-16 4 -109 8 -207 8 l-178 -1 6 26 c30 145 42 402 26 580 -42 472 -213 902 -556 1395 -44 63 -84 114 -89 112 -6 -2 -30 -59 -54 -128 -147 -418 -187 -863 -113 -1273 10 -55 18 -102 17 -103 0 -1 -39 28 -86 63 -46 36 -108 79 -137 97 -29 17 -53 37 -53 43 0 6 7 29 16 50 36 83 107 305 135 418 50 205 62 324 56 561 -7 283 -48 519 -158 917 l-41 148 -32 0 c-32 0 -33 -2 -88 -137 -48 -117 -57 -132 -58 -101 -1 92 -54 276 -125 439 -40 90 -42 100 -33 141 l11 45 86 6 c312 23 655 207 991 533 l136 132 293 -763 c162 -420 297 -769 302 -776 7 -11 77 -15 345 -19 286 -4 338 -7 344 -20 27 -58 43 -77 79 -95 l40 -20 -29 -17 c-39 -22 -64 -73 -64 -133 0 -58 22 -98 65 -117 35 -15 34 -13 9 -63 -39 -76 -16 -179 45 -207 25 -11 34 -28 15 -28 -18 0 -50 -83 -50 -130 0 -59 29 -106 81 -129 l40 -18 -31 -13 c-78 -32 -100 -183 -36 -249 26 -27 26 -29 11 -64 -31 -75 -13 -181 37 -208 19 -10 19 -12 5 -21 -64 -35 -72 -211 -13 -255 21 -16 22 -20 10 -39 -8 -11 -19 -45 -25 -75 -13 -66 -1 -125 35 -158 l23 -22 -18 -37 c-26 -51 -26 -156 1 -199 11 -18 24 -33 29 -33 5 0 2 -15 -7 -32 -12 -23 -17 -58 -17 -115 0 -76 2 -85 27 -109 25 -25 25 -29 12 -50 -19 -28 -29 -119 -20 -169 4 -21 18 -48 32 -62 16 -16 22 -29 16 -36 -30 -39 -17 -253 24 -394 26 -90 101 -263 114 -263 12 0 78 141 110 236 31 90 63 253 75 376 l6 66 82 -51 c118 -73 365 -190 488 -231 198 -65 290 -80 511 -80 l196 -1 27 -55 c91 -186 228 -331 390 -412 100 -51 186 -75 385 -109 96 -16 198 -37 225 -45 103 -33 174 -90 216 -174 12 -25 23 -46 25 -48 1 -2 13 0 28 4 32 8 32 17 6 118 -63 241 -180 428 -331 530 -101 68 -191 95 -478 141 -52 9 -115 25 -140 36 -43 19 -91 55 -91 69 0 3 24 14 53 25 97 34 233 103 338 173 117 78 244 179 244 195 0 5 -42 39 -93 74 l-93 63 63 27 c312 134 594 363 933 758 149 173 445 533 445 540 0 18 -331 -8 -492 -39 -65 -13 -118 -20 -117 -17 0 3 6 53 12 110 l12 104 91 23 c299 75 580 250 874 544 176 176 286 311 435 535 99 149 265 436 265 457 0 14 -55 9 -197 -17 -205 -38 -434 -103 -512 -144 -12 -7 -24 -11 -26 -9 -2 2 25 37 61 78 196 225 375 570 454 875 29 111 48 225 38 225 -2 0 -72 -26 -154 -58 l-149 -57 0 185 c-1 206 -17 337 -65 528 -16 63 -29 117 -27 118 1 1 32 15 68 32 196 88 350 232 446 417 46 90 89 203 80 211 -3 3 -36 1 -74 -6 -89 -15 -483 -26 -483 -13 0 5 36 20 81 33 110 32 278 116 380 191 167 123 337 326 433 518 36 72 106 242 106 258 0 6 -37 3 -92 -9 -107 -22 -402 -61 -425 -56 -9 2 21 18 65 36 92 38 257 134 352 206 99 75 248 231 317 332 74 108 151 259 187 368 23 70 32 116 22 116 -2 0 -77 -25 -167 -55 -493 -164 -984 -240 -1639 -252 l-314 -6 42 48 c35 40 40 50 31 67 -7 12 -17 18 -27 14 -96 -32 -202 -59 -272 -71 -93 -16 -301 -37 -307 -31 -2 2 4 20 14 41 16 35 17 38 1 49 -14 11 -31 6 -99 -28 -82 -41 -84 -41 -183 -38 -55 1 -102 4 -104 7 -3 2 5 27 17 54 11 27 21 54 21 60 0 6 -25 1 -57 -10 -31 -10 -57 -18 -58 -17 -111 193 -163 264 -282 380 -138 137 -267 232 -463 343 -95 54 -352 177 -358 171 -11 -12 86 -336 134 -444 13 -30 24 -56 24 -58 0 -2 -53 51 -117 117 -138 142 -272 252 -437 361 -118 77 -421 236 -432 226 -8 -9 43 -197 88 -324 80 -225 251 -534 382 -689 57 -67 64 -80 38 -66 -15 8 -23 6 -37 -9 -10 -11 -23 -20 -29 -20 -6 0 -26 -33 -45 -72 -49 -101 -49 -183 1 -323 122 -341 121 -337 126 -425 10 -186 -65 -357 -236 -532 l-74 -77 -234 187 -233 187 0 368 -1 367 70 0 c66 0 72 2 109 35 92 83 94 176 6 274 l-37 41 -79 0 c-78 0 -79 0 -79 25 0 14 -4 25 -9 25 -6 0 -2 24 9 54 37 109 52 204 48 300 -5 127 -47 217 -148 315 l-70 69 16 68 c23 98 15 198 -19 257 -40 67 -78 87 -170 87 -70 0 -79 -3 -119 -33z m203 -63 c55 -53 62 -163 20 -289 l-21 -60 23 -15 c63 -42 150 -138 180 -199 30 -61 32 -73 32 -171 0 -92 -4 -119 -34 -212 l-34 -108 -236 0 -236 0 -43 103 c-56 133 -72 197 -72 282 1 117 58 206 179 275 44 25 59 39 54 50 -64 150 -55 292 23 347 42 29 55 33 98 29 24 -3 49 -14 67 -32z m-807 -276 c-56 -168 -174 -411 -271 -558 -64 -97 -199 -268 -235 -298 -12 -9 -81 -12 -297 -10 l-282 3 37 70 c118 223 288 422 533 623 165 136 552 364 559 329 2 -9 -18 -80 -44 -159z m1515 116 c439 -234 792 -569 967 -915 l34 -69 -284 0 -284 0 -77 93 c-155 185 -289 410 -380 637 -55 138 -107 310 -92 310 6 0 58 -25 116 -56z m-2319 -211 c-75 -270 -215 -550 -363 -725 -39 -46 -42 -48 -94 -48 -48 0 -54 -2 -49 -18 6 -17 -3 -18 -121 -15 -125 3 -294 18 -340 29 l-22 6 21 42 c118 232 377 476 689 649 78 44 281 146 291 147 4 0 -2 -30 -12 -67z m3170 -1 c252 -127 427 -249 586 -407 104 -104 185 -210 235 -306 l28 -57 -62 -12 c-34 -6 -143 -14 -241 -17 -163 -5 -179 -4 -173 11 5 14 -2 16 -48 16 -50 0 -55 2 -89 42 -95 110 -191 270 -260 433 -59 137 -132 365 -118 365 4 0 68 -31 142 -68z m-7194 -693 c475 -165 1141 -259 1835 -259 l238 0 64 -49 c36 -27 71 -51 78 -53 11 -4 12 -8 1 -20 -10 -13 -5 -23 33 -66 l46 -51 -38 -10 c-94 -26 -268 -62 -383 -78 -158 -22 -597 -25 -740 -5 -252 36 -466 97 -619 178 -65 34 -87 42 -97 33 -28 -23 -11 -39 99 -93 280 -137 607 -194 1050 -183 264 6 429 27 643 82 l134 35 69 -54 c38 -29 98 -68 135 -87 36 -19 66 -37 66 -41 0 -11 -12 -10 -61 7 -36 13 -45 13 -56 2 -12 -11 -10 -18 7 -40 l22 -27 -84 -40 c-71 -34 -106 -43 -243 -65 -358 -55 -815 -92 -1029 -83 -96 5 -128 11 -234 46 -349 117 -612 302 -811 572 -71 95 -210 370 -188 370 2 0 30 -9 63 -21z m11109 -1 c-17 -59 -130 -272 -185 -350 -80 -112 -260 -286 -374 -362 -210 -139 -480 -245 -646 -253 -197 -11 -681 28 -1029 83 -147 23 -173 30 -248 68 -84 42 -84 42 -64 60 23 21 27 41 11 51 -6 4 -33 -1 -61 -10 -28 -10 -53 -14 -56 -11 -4 3 -4 7 -2 9 2 1 30 16 62 32 32 17 93 56 135 88 54 40 83 56 97 52 344 -94 565 -121 915 -112 365 10 644 68 870 182 113 57 121 64 109 86 -13 25 -19 24 -86 -15 -377 -219 -1130 -269 -1706 -114 l-78 21 47 48 c38 38 45 51 36 62 -10 11 2 24 62 69 l74 55 338 6 c187 3 395 11 464 17 450 37 866 114 1185 219 145 47 138 46 130 19z m-8044 -124 c43 -9 158 -17 273 -21 l199 -6 61 -62 c34 -34 70 -67 81 -74 19 -11 19 -12 -8 -36 -27 -24 -35 -25 -143 -25 l-115 0 16 -30 16 -30 -54 0 c-154 0 -303 87 -399 234 -43 66 -46 80 -19 71 10 -3 52 -12 92 -21z m5059 18 c0 -22 -82 -132 -133 -178 -86 -79 -195 -124 -301 -124 -39 0 -47 3 -42 15 3 8 9 22 12 30 5 13 -10 15 -103 15 -99 0 -112 2 -142 24 l-32 24 44 32 c25 17 59 51 78 76 l33 44 145 0 c140 0 322 19 386 39 39 12 55 13 55 3z m-2076 -34 c34 -46 41 -80 22 -116 -33 -64 -14 -62 -528 -62 l-467 0 -19 28 c-29 41 -34 77 -17 119 28 67 -8 63 511 63 l473 0 25 -32z m-1604 13 c0 -16 -88 -90 -137 -114 -229 -116 -501 -108 -642 19 -28 25 -60 59 -72 75 l-20 29 435 0 c242 0 436 -4 436 -9z m3060 1 c0 -4 -20 -31 -46 -59 -112 -130 -324 -171 -544 -107 -106 31 -235 108 -261 155 -9 19 1 19 421 19 236 0 430 -3 430 -8z m-5186 -77 c66 -8 150 -15 186 -15 l66 0 55 -59 c56 -59 153 -131 176 -131 7 0 13 -4 13 -9 0 -16 -142 -34 -225 -28 -177 13 -363 101 -518 246 l-61 58 94 -24 c52 -13 148 -30 214 -38z m4457 -75 c79 -41 102 -70 54 -70 -40 0 -29 -52 23 -112 17 -18 33 -50 37 -71 7 -36 7 -37 -24 -37 -21 0 -31 -5 -31 -15 0 -19 26 -71 51 -104 14 -18 19 -41 19 -92 0 -38 -3 -69 -7 -69 -5 0 -8 -35 -8 -77 0 -108 -11 -153 -36 -153 -17 0 -19 -4 -12 -22 13 -40 7 -75 -30 -152 -62 -130 -155 -246 -259 -323 l-48 -35 -48 39 -49 38 69 75 c141 150 219 288 244 432 25 141 7 241 -91 493 -55 140 -59 156 -59 235 -1 63 4 94 17 121 l18 37 45 -48 c28 -29 77 -65 125 -90z m2219 77 c-161 -154 -354 -240 -540 -241 -98 -1 -190 10 -190 22 0 4 28 23 62 42 33 19 86 62 117 96 l56 61 116 6 c124 7 314 37 389 61 25 8 47 14 50 15 3 0 -24 -28 -60 -62z m-6220 -10 c41 -9 106 -19 143 -23 65 -6 71 -9 109 -50 22 -24 65 -60 96 -81 l57 -38 -30 -6 c-50 -11 -171 -10 -227 2 -88 18 -174 65 -242 132 -35 34 -70 76 -79 94 l-17 31 58 -23 c31 -13 91 -30 132 -38z m1736 21 c30 -67 24 -153 -21 -273 -107 -288 -118 -326 -123 -430 -9 -208 62 -366 252 -562 l79 -82 -24 -20 c-13 -11 -38 -28 -55 -37 l-31 -17 -61 46 c-115 89 -210 215 -267 354 -20 49 -23 68 -15 88 14 37 13 45 -9 45 -16 0 -21 12 -31 71 -7 40 -10 92 -6 115 3 26 2 44 -4 44 -6 0 -10 29 -10 66 0 57 4 71 30 108 17 23 34 56 39 74 10 32 9 32 -25 32 -35 0 -35 1 -29 33 4 17 21 48 36 69 25 31 59 96 59 113 0 3 -13 5 -30 5 -52 0 -34 27 44 64 46 22 93 55 123 85 26 27 51 49 54 50 3 1 15 -18 25 -41z m3955 -1 c-97 -142 -254 -227 -416 -227 -70 0 -135 10 -135 20 0 3 22 21 48 38 27 17 67 51 90 76 40 43 41 44 134 55 98 11 224 42 267 66 42 23 44 18 12 -28z m-2633 -529 c1 -186 0 -338 -3 -338 -4 0 -58 41 -122 90 l-115 90 -62 -48 c-33 -26 -100 -78 -148 -116 l-88 -68 0 366 0 366 268 -2 267 -3 3 -337z m-1598 320 c0 -19 -92 -101 -147 -131 -61 -33 -189 -67 -249 -67 -93 0 -194 34 -259 87 -31 26 -94 103 -95 116 0 4 169 7 375 7 282 0 375 -3 375 -12z m3359 -10 c-22 -41 -113 -124 -162 -147 -27 -13 -81 -28 -120 -34 -137 -19 -312 39 -409 136 -26 26 -48 52 -48 57 0 6 144 10 375 10 l376 0 -12 -22z m-5164 -58 c50 -10 146 -24 215 -31 221 -20 225 -20 228 -51 2 -15 8 -25 15 -23 7 2 30 -11 52 -30 l40 -35 -52 0 c-28 0 -55 -4 -58 -10 -3 -5 4 -27 15 -50 l20 -40 -30 0 c-98 0 -279 68 -398 149 -74 50 -186 154 -157 147 11 -3 61 -15 110 -26z m6268 -38 c-129 -121 -312 -211 -461 -228 l-64 -7 21 41 c12 23 21 46 21 52 0 6 -24 10 -57 10 l-58 0 40 35 c22 19 46 32 53 30 8 -3 12 6 12 24 0 24 5 30 31 35 17 3 55 6 85 6 73 0 264 26 354 49 41 10 80 19 85 19 6 1 -22 -29 -62 -66z m-5188 7 c22 -23 59 -54 83 -69 50 -33 41 -40 -51 -40 -34 0 -79 -3 -99 -6 -33 -6 -37 -9 -32 -29 5 -19 1 -23 -33 -28 -109 -19 -259 3 -344 50 -51 27 -145 120 -134 132 4 3 124 11 268 17 144 6 271 12 282 12 13 1 37 -15 60 -39z m4440 25 c116 -4 216 -10 223 -13 18 -10 -45 -81 -105 -119 -83 -51 -144 -67 -275 -67 -64 0 -120 3 -123 7 -4 3 -2 15 4 26 14 26 -7 32 -114 32 -102 0 -119 10 -70 38 19 12 55 42 78 67 l42 45 65 -4 c36 -3 160 -8 275 -12z m-3745 -146 c0 -7 -27 -38 -59 -69 -168 -164 -430 -202 -583 -85 -41 32 -106 112 -97 120 2 2 121 10 264 17 234 11 429 22 463 27 6 1 12 -3 12 -10z m2950 -9 c47 -5 121 -9 165 -9 44 0 130 -3 192 -7 l112 -6 -17 -29 c-23 -41 -92 -102 -140 -127 -87 -45 -218 -45 -333 -2 -101 39 -205 115 -235 172 l-14 28 93 -5 c50 -3 130 -9 177 -15z m-4045 -65 c65 -20 194 -28 271 -17 l60 9 37 -42 c20 -23 37 -45 37 -47 0 -3 -35 -20 -77 -38 -73 -31 -85 -33 -193 -34 -106 0 -119 2 -165 27 -27 15 -60 35 -72 45 -27 22 -83 93 -83 104 0 15 132 10 185 -7z m5045 9 c0 -9 -48 -70 -78 -99 -104 -99 -298 -112 -457 -32 -22 11 -42 22 -44 24 -2 1 13 23 33 47 l36 44 62 -9 c75 -11 196 -3 259 16 45 14 189 21 189 9z m-5489 -102 c42 -11 133 -27 205 -36 103 -13 142 -23 194 -48 55 -27 78 -33 153 -36 77 -3 139 5 189 24 10 4 26 -13 51 -54 20 -32 37 -62 37 -65 0 -3 -37 -17 -82 -32 -119 -39 -258 -39 -378 0 -47 15 -101 31 -120 35 -43 9 -88 32 -162 83 -55 37 -179 147 -167 148 3 0 39 -9 80 -19z m5774 -37 c-107 -98 -208 -158 -305 -183 -25 -7 -76 -21 -115 -32 -107 -30 -171 -34 -263 -15 -45 9 -102 25 -127 36 l-46 20 38 57 c20 32 38 59 38 60 0 1 28 -5 60 -13 41 -11 88 -15 146 -12 72 3 97 9 152 36 51 26 90 35 184 47 65 8 152 24 193 34 41 10 82 19 90 20 8 0 -12 -24 -45 -55z m-5767 -83 c26 -22 78 -58 116 -80 l68 -40 -95 -45 c-277 -133 -606 -229 -957 -278 -57 -8 -188 -13 -330 -13 -283 1 -388 16 -557 84 l-53 21 -11 -22 c-13 -25 -8 -29 71 -59 151 -57 311 -80 554 -80 440 1 898 105 1288 293 l148 71 57 -54 c32 -30 78 -71 103 -91 l45 -37 -30 -31 c-37 -39 -49 -45 -339 -174 -458 -204 -705 -296 -986 -368 -180 -46 -240 -49 -388 -18 -272 55 -490 173 -680 368 -96 99 -204 255 -266 385 -58 123 -60 130 -38 123 9 -3 80 -14 157 -25 539 -77 1233 -45 1930 88 139 26 140 26 193 -18z m5943 14 c712 -131 1357 -159 1884 -84 77 11 148 22 158 25 26 8 22 -8 -33 -120 -140 -287 -362 -522 -615 -649 -132 -66 -365 -127 -487 -127 -171 0 -597 141 -1103 365 -323 143 -397 180 -430 215 l-30 31 45 37 c25 20 71 61 103 91 l58 55 137 -67 c397 -193 849 -297 1287 -297 244 0 434 30 577 92 52 22 54 25 35 52 -12 17 -16 17 -43 4 -201 -102 -620 -126 -1024 -58 -295 50 -574 138 -818 257 l-93 45 72 44 c39 24 90 60 113 79 22 19 48 35 57 35 9 0 76 -11 150 -25z m-4480 -23 c-100 -141 -311 -209 -466 -151 -59 22 -148 96 -178 148 l-18 31 341 0 341 0 -20 -28z m3469 22 c0 -4 -15 -27 -34 -53 -115 -156 -327 -186 -504 -71 -53 34 -122 103 -122 122 0 5 149 8 330 8 182 0 330 -3 330 -6z m-1761 -271 c288 -230 1523 -1223 1533 -1232 6 -5 -694 -2156 -705 -2167 -5 -6 -2137 32 -2143 38 -6 7 -802 2072 -807 2095 -2 11 1855 1463 1871 1463 3 0 115 -89 251 -197z m2220 71 c-53 -55 -185 -152 -258 -188 -131 -67 -276 -96 -395 -82 -51 7 -55 9 -46 27 9 16 7 19 -11 19 -19 0 -16 4 17 28 22 16 57 54 78 85 44 64 37 61 226 72 114 7 299 36 370 59 25 8 47 14 49 15 3 1 -11 -15 -30 -35z m-4929 -4 c78 -17 193 -30 390 -46 75 -5 75 -6 100 -46 14 -22 47 -60 74 -84 29 -27 42 -44 32 -44 -19 0 -21 -11 -5 -27 17 -17 -67 -27 -165 -20 -94 7 -193 35 -286 82 -74 37 -210 136 -255 185 l-30 33 30 -8 c17 -4 68 -15 115 -25z m1054 -51 c-23 -46 -97 -114 -151 -140 -65 -31 -159 -37 -220 -14 -52 20 -121 79 -163 140 l-28 40 290 3 289 3 -17 -32z m3266 23 c0 -12 -65 -95 -96 -122 -116 -101 -273 -92 -392 23 -38 37 -72 85 -72 102 0 3 126 4 280 3 154 -2 280 -4 280 -6z m-4195 -194 c25 -12 43 -28 41 -34 -3 -7 20 -39 50 -73 l55 -60 -100 -75 c-380 -282 -929 -513 -1436 -602 -137 -24 -416 -25 -500 -1 -46 12 -61 13 -67 4 -16 -24 -2 -41 47 -55 75 -22 409 -21 540 1 497 87 1082 335 1457 618 l103 77 30 -24 c17 -13 56 -40 87 -60 l57 -37 -38 -44 c-22 -24 -50 -52 -63 -62 -62 -47 -995 -588 -1183 -685 -186 -96 -537 -131 -804 -81 -319 61 -556 236 -686 507 -19 39 -33 73 -32 75 2 1 41 -2 88 -7 182 -21 430 -9 659 31 344 60 658 171 1300 458 184 82 338 150 342 150 4 1 28 -9 53 -21z m4798 -59 c665 -298 862 -377 1133 -454 297 -86 575 -123 834 -112 80 4 162 10 182 13 l38 7 -22 -53 c-68 -163 -204 -319 -359 -411 -83 -50 -229 -103 -345 -125 -196 -39 -584 -11 -720 51 -92 41 -340 181 -783 444 -329 194 -449 270 -495 314 -59 55 -60 58 -41 72 11 8 51 38 88 65 l69 50 49 -41 c178 -149 578 -369 879 -483 467 -176 902 -238 1168 -167 38 11 42 15 36 34 -9 31 -9 31 -44 18 -71 -24 -244 -35 -377 -22 -344 31 -707 143 -1098 336 -217 107 -337 179 -487 293 l-88 66 56 58 c31 32 54 64 51 71 -4 10 64 55 86 57 4 0 90 -37 190 -81z m-3819 13 c10 -17 -42 -108 -82 -144 -53 -48 -102 -51 -181 -12 -51 26 -171 130 -171 149 0 13 426 19 434 7z m3046 -2 c0 -4 -28 -35 -62 -69 -151 -149 -270 -147 -347 6 -39 77 -48 74 194 72 118 -1 215 -5 215 -9z m-3720 -74 c47 -9 129 -20 183 -26 91 -9 102 -13 141 -45 117 -96 236 -99 316 -9 28 33 32 34 99 34 65 0 73 -3 107 -32 l36 -32 -23 -19 c-39 -31 -149 -83 -229 -108 -96 -30 -261 -32 -359 -5 -137 37 -271 115 -391 225 l-65 60 50 -14 c28 -8 88 -21 135 -29z m4073 -16 c-113 -107 -259 -191 -393 -227 -86 -22 -244 -22 -328 1 -81 22 -157 55 -221 97 l-51 33 32 33 c31 32 35 33 108 33 73 0 77 -1 98 -30 36 -48 96 -73 158 -67 59 6 91 21 159 72 43 33 56 37 139 46 108 11 249 36 308 54 24 8 45 14 48 14 3 0 -23 -26 -57 -59z m-3126 -153 l31 -23 -120 -103 c-66 -57 -119 -100 -117 -95 2 5 19 48 38 94 35 86 43 95 137 150 0 0 14 -10 31 -23z m2152 -9 c49 -32 63 -56 120 -202 4 -11 -62 42 -167 134 l-63 55 28 22 c15 13 29 23 31 23 1 0 24 -15 51 -32z m-2395 -144 c-91 -201 -126 -239 -461 -502 -95 -74 -170 -139 -167 -143 6 -10 -12 -26 -235 -212 -227 -190 -475 -375 -541 -405 -84 -37 -274 -98 -380 -121 -381 -82 -688 -31 -866 144 -56 55 -124 154 -124 182 0 6 19 14 43 18 83 14 253 67 391 122 259 102 557 258 1086 571 162 96 389 228 504 295 l208 120 92 -24 c127 -33 277 -32 391 4 44 13 83 25 87 26 4 0 -9 -33 -28 -75z m2590 56 c134 -46 309 -46 444 -1 l52 18 158 -92 c86 -50 290 -170 452 -267 584 -348 834 -484 1080 -591 147 -64 333 -128 445 -152 44 -10 81 -19 83 -20 7 -6 -49 -104 -82 -144 -128 -154 -308 -224 -571 -224 -205 0 -392 37 -629 126 -100 37 -127 53 -266 158 -85 64 -230 179 -321 255 -266 224 -252 210 -247 238 4 22 -18 43 -206 193 -340 271 -336 267 -394 380 -48 94 -68 143 -59 143 2 0 29 -9 61 -20z m-3150 -878 c20 -52 36 -99 36 -106 0 -16 -205 -201 -359 -324 -239 -192 -480 -334 -629 -370 -66 -16 -72 -19 -72 -43 0 -26 0 -26 53 -17 211 38 602 293 958 626 l76 71 42 -109 c25 -66 40 -118 36 -129 -10 -31 -257 -264 -371 -350 -120 -90 -278 -186 -379 -229 -235 -102 -458 -117 -607 -41 -53 27 -140 114 -167 167 l-22 42 28 11 c302 114 652 346 1153 763 96 80 178 142 182 138 4 -4 23 -49 42 -100z m3956 -92 c415 -345 722 -553 990 -671 52 -23 99 -45 104 -50 13 -11 -47 -100 -100 -149 -195 -180 -547 -132 -935 128 -127 85 -265 200 -382 319 l-87 88 41 123 41 122 96 -89 c316 -291 626 -501 841 -570 87 -28 121 -28 121 2 0 19 -9 24 -69 39 -198 47 -506 251 -848 559 -68 61 -123 114 -123 117 0 3 17 57 37 119 37 112 37 112 58 94 11 -10 108 -92 215 -181z m-6238 136 c83 -24 241 -46 330 -46 l76 0 7 -31 c4 -17 3 -35 -1 -39 -14 -14 -234 -78 -332 -96 l-90 -18 20 -50 c66 -169 206 -302 387 -367 l63 -23 -6 -55 c-12 -107 -48 -306 -57 -315 -6 -6 -21 2 -41 21 -82 77 -283 207 -430 279 l-56 27 -8 86 c-10 128 2 370 25 506 25 140 27 149 44 142 6 -2 38 -12 69 -21z m8264 -85 c56 -204 83 -458 69 -653 l-7 -107 -115 -61 c-139 -73 -255 -148 -340 -218 -34 -29 -64 -52 -66 -52 -3 0 -7 17 -10 38 -3 20 -15 91 -26 157 -12 66 -24 163 -27 216 l-7 97 34 7 c19 4 76 27 128 52 126 60 218 151 279 273 23 47 42 91 42 97 0 6 -30 16 -67 23 -81 15 -305 78 -316 89 -4 4 -1 23 7 43 l15 35 98 8 c54 4 134 15 178 25 44 9 86 17 94 16 9 -1 23 -31 37 -85z m-2172 -716 c275 -222 541 -346 794 -370 65 -6 72 -9 72 -29 0 -11 9 -58 20 -103 l19 -82 -38 -83 c-53 -115 -97 -250 -117 -359 l-17 -92 -52 124 c-49 117 -54 124 -82 127 -22 2 -32 -2 -36 -15 -230 -775 -254 -1203 -95 -1700 21 -69 55 -165 74 -215 19 -50 33 -92 32 -93 -2 -2 -50 -35 -108 -74 -58 -39 -121 -83 -139 -99 -19 -15 -32 -22 -28 -16 4 6 17 69 29 140 29 172 32 528 4 702 -24 156 -67 326 -116 462 -23 63 -44 123 -47 133 -3 9 -8 17 -12 17 -12 0 -186 -251 -266 -385 -183 -304 -292 -585 -351 -910 -24 -128 -25 -544 -3 -670 l15 -80 -198 0 c-109 0 -198 2 -198 3 0 2 8 16 18 30 131 190 243 530 284 862 23 185 14 820 -12 820 -11 0 -223 -203 -329 -315 -499 -530 -720 -1094 -645 -1645 l6 -45 -99 -78 -98 -78 -3 72 c-2 52 1 76 12 88 19 21 35 92 36 152 0 33 -7 57 -24 82 -19 28 -22 37 -11 48 16 18 35 97 35 146 0 41 -32 103 -52 103 -9 1 -7 5 3 13 20 15 49 107 49 154 0 37 -20 82 -44 103 -14 11 -14 14 -1 24 21 16 48 131 40 172 -3 18 -17 47 -30 63 -21 24 -22 31 -11 40 19 16 40 96 40 151 0 32 -7 56 -22 78 l-23 31 29 15 c23 12 33 28 46 74 21 77 20 110 -5 151 -13 22 -17 36 -10 40 14 9 38 68 46 117 9 58 -14 109 -59 131 l-36 17 47 25 c38 21 51 35 65 71 31 83 22 144 -30 186 l-26 21 23 8 c30 9 71 97 71 154 0 36 -6 49 -36 79 -20 20 -31 38 -25 40 20 7 52 81 58 134 l6 51 385 -4 384 -4 255 776 256 775 95 -94 c53 -51 137 -126 186 -167z m-4880 165 c-17 -17 -238 -126 -314 -155 -41 -16 -78 -31 -82 -35 -11 -8 44 -118 84 -168 l34 -43 -42 -107 c-38 -95 -102 -297 -119 -376 -6 -28 -8 -26 -56 54 -27 45 -64 103 -81 128 -31 45 -32 49 -36 182 -4 131 6 268 29 398 l11 62 89 0 c109 0 280 23 396 54 88 22 105 24 87 6z m5901 -11 c107 -25 280 -49 361 -49 l61 0 22 -97 c37 -161 53 -314 49 -468 l-3 -141 -64 -99 c-35 -55 -71 -111 -79 -125 -15 -24 -16 -22 -39 65 -36 136 -80 259 -134 375 l-50 105 54 56 c55 58 126 185 111 198 -5 4 -40 20 -79 36 -96 38 -305 146 -305 156 0 12 -5 12 95 -12z m-7394 -59 c493 -211 726 -406 961 -803 l71 -119 -13 -107 c-7 -58 -13 -170 -13 -248 -1 -79 -4 -143 -9 -143 -15 0 -134 48 -194 78 -166 84 -370 253 -506 419 -182 223 -329 509 -412 802 -41 142 -48 181 -36 181 5 0 73 -27 151 -60z m847 12 c10 -7 10 -27 -3 -103 -8 -52 -18 -161 -22 -243 l-6 -149 -44 47 c-24 25 -42 49 -40 54 5 7 50 269 62 355 6 48 21 59 53 39z m7117 -79 c3 -49 20 -166 36 -262 16 -96 27 -181 24 -191 -3 -9 -21 -31 -40 -50 l-35 -34 0 97 c0 112 -22 297 -50 415 -11 46 -20 87 -20 92 0 8 15 12 66 19 8 0 14 -31 19 -86z m939 -50 c-11 -65 -74 -264 -110 -351 -196 -473 -517 -826 -902 -992 -134 -58 -120 -72 -126 130 -3 96 -10 203 -16 237 l-10 62 64 109 c232 391 482 593 986 798 58 24 109 43 113 44 4 0 5 -17 1 -37z m-7499 -393 c142 -265 215 -499 215 -692 0 -62 -7 -87 -69 -242 -72 -180 -170 -470 -192 -569 -7 -32 -16 -56 -20 -55 -4 2 -55 75 -113 162 -78 117 -110 175 -121 218 -62 236 -59 576 5 872 24 109 86 303 125 391 l25 56 50 -28 c43 -24 56 -39 95 -113z m6139 -42 c153 -361 205 -737 150 -1083 -23 -150 -36 -183 -116 -297 -41 -58 -88 -127 -104 -152 -16 -25 -32 -46 -35 -46 -3 0 -12 26 -19 58 -21 97 -106 343 -182 529 -73 178 -73 178 -71 266 3 140 40 292 114 460 43 97 198 377 209 377 3 0 28 -51 54 -112z m-7685 -434 c227 -47 477 -140 644 -241 265 -159 462 -372 732 -789 l92 -142 -13 -78 c-7 -44 -13 -104 -14 -134 -1 -83 -5 -86 -86 -66 -241 60 -521 224 -770 451 -246 225 -523 590 -705 929 -60 114 -69 109 120 70z m2041 -304 c141 -604 126 -974 -62 -1495 -28 -77 -52 -142 -54 -144 -2 -2 -48 16 -101 41 -92 43 -206 87 -263 103 -14 4 -30 12 -37 17 -22 17 -36 176 -30 343 12 313 90 586 347 1205 56 134 104 249 108 254 7 12 40 -104 92 -324z m5152 58 c235 -551 323 -812 363 -1083 25 -169 14 -458 -19 -483 -6 -5 -54 -23 -106 -41 -52 -18 -137 -53 -189 -77 -52 -24 -95 -43 -96 -42 -13 15 -113 308 -140 411 -49 187 -65 306 -65 494 0 177 16 329 55 523 31 148 116 473 123 466 2 -3 36 -79 74 -168z m2008 167 c0 -11 -156 -275 -212 -359 -314 -469 -695 -819 -1063 -978 -110 -47 -288 -101 -299 -90 -3 3 -6 30 -7 61 0 31 -6 92 -13 136 l-14 80 93 140 c335 508 594 739 995 888 177 66 520 146 520 122z m-4900 -315 c0 -11 7 -20 15 -20 8 0 19 9 25 20 12 22 65 26 144 12 l38 -7 -89 -37 c-48 -21 -101 -38 -116 -38 -51 0 -107 41 -107 79 0 6 20 11 45 11 38 0 45 -3 45 -20z m598 -32 c4 -47 -21 -105 -50 -118 -13 -5 -126 -55 -251 -110 -132 -57 -242 -100 -260 -100 -42 0 -95 33 -103 65 -9 35 3 88 24 110 9 10 107 57 217 106 l200 87 110 -1 110 -2 3 -37z m-43 -202 c46 -20 60 -51 46 -103 -6 -23 -19 -50 -29 -61 -9 -11 -120 -68 -246 -127 -245 -115 -266 -120 -314 -75 -33 31 -37 66 -16 117 l19 44 230 108 c127 60 240 110 253 110 12 1 38 -6 57 -13z m-2302 -345 c121 -187 264 -479 326 -666 122 -366 151 -720 90 -1097 l-11 -66 -71 -18 c-40 -9 -88 -23 -108 -29 l-35 -13 -53 107 c-68 136 -179 303 -275 411 -73 82 -76 88 -96 172 -41 173 -53 294 -54 518 -1 218 7 307 45 495 21 105 83 325 101 359 10 19 11 19 32 -8 11 -16 61 -90 109 -165z m4142 11 c37 -110 76 -277 97 -412 20 -131 17 -519 -5 -650 -36 -215 -45 -237 -136 -341 -102 -117 -207 -272 -267 -394 l-45 -93 -61 19 c-34 10 -81 21 -105 25 -41 6 -42 7 -52 58 -32 163 -42 454 -20 626 43 350 183 715 406 1060 79 122 144 212 150 207 2 -3 19 -50 38 -105z m-1831 39 c25 -26 26 -82 3 -128 -14 -26 -54 -51 -232 -143 -235 -121 -248 -125 -296 -74 -16 17 -23 37 -23 62 0 74 13 85 239 203 184 95 215 108 249 105 22 -3 48 -14 60 -25z m-1488 -399 c236 -256 379 -454 498 -692 140 -282 198 -515 198 -795 0 -88 -4 -179 -9 -203 l-8 -43 -50 32 c-97 63 -260 139 -374 175 -64 21 -121 45 -128 53 -7 9 -39 63 -72 121 -123 216 -202 460 -247 760 -18 119 -31 594 -19 714 l7 76 36 -28 c19 -15 95 -91 168 -170z m2547 71 c10 -106 8 -438 -4 -559 -21 -219 -63 -415 -126 -584 -41 -110 -139 -305 -187 -370 -29 -40 -40 -47 -102 -63 -97 -26 -264 -98 -363 -157 -60 -36 -88 -47 -95 -40 -7 7 -11 80 -11 203 0 159 4 211 23 303 64 318 207 604 459 919 83 104 378 415 393 415 4 0 10 -30 13 -67z m-1103 28 c64 -46 16 -191 -63 -191 -12 0 -93 -43 -179 -95 -86 -52 -166 -95 -178 -95 -35 0 -70 44 -70 87 0 79 18 96 230 213 202 112 211 115 260 81z m-16 -252 c21 -17 26 -29 26 -65 0 -75 -20 -108 -86 -140 -33 -16 -113 -63 -178 -106 -66 -43 -125 -78 -131 -78 -25 0 -64 42 -70 74 -4 18 -2 51 4 74 11 39 18 45 193 151 101 61 190 111 199 111 9 0 28 -9 43 -21z m-39 -284 c28 -27 32 -65 15 -127 -10 -33 -27 -49 -168 -144 -86 -59 -166 -109 -178 -111 -50 -11 -85 101 -51 166 13 26 320 241 344 241 8 0 25 -11 38 -25z m-3510 -20 c624 -108 1116 -459 1381 -984 30 -58 54 -109 54 -112 0 -4 -21 -14 -47 -24 -27 -10 -99 -44 -162 -76 l-114 -59 -86 36 c-116 49 -279 142 -376 214 -234 175 -434 385 -830 874 l-129 159 110 -6 c60 -4 150 -14 199 -22z m6833 -22 c-8 -10 -81 -99 -163 -197 -447 -541 -702 -775 -1010 -928 -49 -25 -116 -55 -147 -68 l-58 -24 -137 66 c-76 36 -149 69 -162 74 l-23 10 56 109 c210 406 574 712 1031 864 176 59 421 105 584 110 41 1 43 0 29 -16z m-3318 -233 c23 -23 26 -85 7 -137 -16 -44 -297 -246 -336 -241 -46 5 -67 95 -38 161 14 31 299 237 329 237 10 0 27 -9 38 -20z m0 -270 c22 -22 27 -82 10 -140 -9 -29 -33 -52 -152 -139 -78 -57 -149 -106 -158 -108 -11 -3 -26 7 -40 24 -19 24 -21 36 -17 85 3 31 8 62 12 69 12 18 298 228 313 229 6 0 21 -9 32 -20z m5 -280 c21 -23 23 -107 3 -148 -17 -35 -267 -230 -295 -231 -28 -1 -53 44 -52 91 1 73 18 95 159 203 74 58 142 105 151 105 9 0 24 -9 34 -20z m1357 -270 c204 -39 446 -142 652 -276 l98 -65 -58 -46 c-445 -348 -924 -434 -1451 -258 -110 37 -366 157 -461 218 l-53 34 78 60 c395 305 779 412 1195 333z m-2666 -3 c249 -55 492 -177 712 -356 l73 -59 -84 -51 c-334 -201 -652 -301 -963 -301 -214 0 -412 46 -610 140 -104 50 -272 158 -357 229 l-48 40 104 69 c234 155 486 259 717 297 107 18 357 13 456 -8z m1306 6 c25 -29 30 -60 18 -118 -11 -55 -12 -56 -146 -165 -73 -61 -138 -110 -142 -110 -16 0 -40 35 -47 68 -4 18 -1 54 5 80 11 44 21 54 143 154 73 59 137 107 143 107 6 1 18 -7 26 -16z m-27 -395 c-9 -143 -31 -300 -56 -388 -24 -88 -78 -220 -89 -220 -12 0 -56 115 -81 211 -16 61 -22 116 -23 198 l-1 115 120 93 c66 51 124 93 128 93 5 0 6 -46 2 -102z m1552 -389 c64 -71 120 -92 354 -129 284 -44 416 -120 535 -306 36 -56 107 -215 99 -222 -2 -2 -22 10 -45 27 -65 47 -136 69 -349 106 -196 34 -296 62 -381 105 -141 71 -249 183 -349 362 l-32 56 58 20 c32 11 61 21 66 21 4 1 24 -17 44 -40z m-3407 -16 c33 -9 60 -21 60 -26 0 -21 -86 -163 -141 -233 -67 -84 -145 -149 -239 -198 -93 -49 -175 -73 -340 -102 -250 -42 -339 -68 -405 -118 -54 -41 -56 -40 -34 16 59 153 114 241 201 324 108 105 201 143 445 184 98 17 198 38 223 47 56 20 113 60 137 95 21 33 17 32 93 11z"></path><path d="M5753 9368 l-21 -23 24 -35 c38 -54 65 -154 66 -242 0 -85 -13 -138 -47 -184 -23 -29 -23 -31 -5 -54 l19 -25 25 24 c103 97 97 399 -11 530 l-28 33 -22 -24z"></path><path d="M5850 8135 l0 -265 25 0 25 0 0 265 0 265 -25 0 -25 0 0 -265z"></path><path d="M4885 7010 c-478 -362 -873 -665 -878 -672 -4 -8 144 -397 377 -988 l385 -975 408 -6 c224 -4 662 -9 973 -13 l565 -7 338 989 c187 544 340 996 340 1005 2 15 -1609 1327 -1628 1326 -5 -1 -401 -297 -880 -659z m1660 -49 c418 -337 764 -617 769 -622 7 -6 -135 -450 -150 -468 -2 -2 -68 17 -146 43 -272 88 -478 207 -723 416 -71 61 -154 127 -184 147 -124 83 -285 108 -401 64 -51 -19 -134 -77 -276 -194 -114 -93 -222 -131 -333 -117 l-50 6 -41 -50 c-95 -118 -238 -206 -400 -246 -58 -15 -132 -23 -230 -27 l-145 -5 -77 199 c-43 109 -78 202 -78 205 0 3 16 18 36 33 l36 27 14 -21 c9 -12 26 -21 40 -21 13 0 24 -4 24 -10 0 -5 9 -10 19 -10 14 0 18 -5 14 -19 -6 -23 27 -47 76 -57 33 -7 34 -7 29 24 -2 18 -4 32 -4 32 1 0 26 9 56 19 47 16 55 22 55 43 -1 22 6 27 49 37 27 6 51 9 54 6 3 -3 -9 -8 -26 -11 -38 -8 -56 -27 -49 -53 3 -14 -5 -26 -29 -43 -38 -26 -44 -57 -14 -65 13 -4 17 -9 12 -17 -5 -6 -12 -23 -16 -37 -5 -24 -3 -27 25 -31 22 -4 33 0 40 14 5 10 7 24 3 30 -4 7 -3 8 4 4 7 -4 12 -14 12 -22 0 -23 27 -16 52 15 27 32 40 60 63 141 20 71 22 74 72 88 62 18 87 55 107 158 10 49 27 101 37 116 26 36 86 52 166 45 70 -7 92 -16 142 -59 67 -59 120 -57 178 5 47 49 75 99 147 267 43 99 78 165 96 182 41 38 100 51 201 45 120 -6 181 -35 242 -114 48 -62 111 -123 128 -123 5 0 15 11 21 25 10 22 8 27 -16 46 -15 12 -52 52 -82 90 -33 42 -74 80 -104 97 -42 24 -46 29 -32 39 14 9 15 15 5 31 -10 17 -8 21 13 31 21 9 23 14 13 32 -10 20 -16 21 -88 16 l-76 -7 35 29 c29 25 32 31 21 45 -8 10 -29 16 -54 16 -32 0 -38 3 -29 12 22 22 14 64 -14 76 -21 10 -33 8 -77 -12 -83 -38 -151 -67 -146 -61 33 32 206 152 214 147 5 -3 352 -283 770 -621z m-984 412 c44 12 -3 -21 -62 -43 -96 -36 -129 -71 -95 -99 13 -11 12 -15 -2 -32 -9 -10 -21 -19 -26 -19 -5 0 -40 -9 -78 -21 -52 -15 -71 -26 -78 -43 -5 -14 -22 -27 -47 -34 -87 -27 -130 -76 -86 -101 24 -13 16 -19 -53 -37 -74 -19 -81 -26 -67 -64 11 -29 11 -29 -31 -35 -22 -4 -67 -5 -99 -3 l-58 3 378 286 c343 259 378 283 381 261 3 -18 8 -23 23 -19z m-57 -280 c-23 -49 -66 -140 -94 -205 -54 -121 -108 -198 -140 -198 -10 0 -35 16 -56 35 -39 37 -111 64 -173 66 -35 1 -35 1 9 10 25 4 60 11 78 14 19 4 32 12 32 20 0 8 7 15 16 15 8 0 24 5 35 10 28 16 8 48 -34 52 -28 4 -25 5 21 12 l52 9 0 43 0 44 -37 0 c-48 0 -32 11 56 41 42 14 65 28 68 40 5 18 33 30 113 46 19 3 46 12 60 20 14 7 28 13 31 13 4 0 -13 -39 -37 -87z m-661 -307 l82 5 -42 -19 c-22 -11 -51 -33 -63 -50 -19 -26 -26 -29 -63 -25 -40 5 -43 3 -61 -30 -11 -21 -15 -43 -11 -56 4 -14 2 -21 -7 -21 -29 0 -39 -16 -28 -44 8 -21 7 -28 -5 -32 -8 -4 -15 -12 -15 -20 0 -7 -9 -18 -19 -23 -15 -9 -20 -7 -25 12 -3 12 -2 23 2 25 23 8 33 23 39 55 5 35 4 37 -23 37 -32 0 -114 -37 -114 -52 0 -5 -10 -18 -22 -28 -19 -15 -20 -20 -10 -33 16 -19 -4 -35 -21 -18 -6 6 -26 11 -43 11 -26 0 -36 -6 -46 -27 -11 -23 -23 -29 -78 -39 -36 -6 -66 -11 -68 -9 -1 1 122 97 275 212 249 189 278 208 281 187 3 -23 5 -23 85 -18z m777 -1021 l69 -44 263 39 263 40 449 -25 c247 -14 451 -27 453 -29 4 -4 -111 -348 -122 -365 -2 -4 -30 -4 -61 0 -179 24 -288 -60 -301 -234 l-6 -76 -23 17 c-125 93 -36 240 243 402 81 47 73 55 -57 54 -63 -1 -99 -7 -140 -23 -72 -29 -150 -89 -191 -146 -18 -25 -36 -45 -41 -45 -4 0 -17 15 -29 33 -15 24 -19 44 -16 83 l3 52 -50 -55 c-28 -31 -67 -66 -88 -79 -63 -40 -180 -74 -284 -82 -107 -9 -114 -5 -114 58 0 34 46 90 74 90 27 0 27 19 -1 33 -84 43 -203 24 -368 -57 -60 -30 -147 -80 -193 -110 l-83 -55 5 32 c3 18 8 63 12 102 6 65 8 71 47 105 34 31 39 40 33 63 l-6 26 -51 -38 c-50 -38 -106 -61 -148 -61 -16 0 -21 6 -21 26 0 34 15 61 58 107 35 36 36 37 12 37 -41 0 -127 -26 -175 -53 -44 -25 -45 -25 -69 -6 -14 11 -31 35 -37 54 -13 34 -29 47 -29 23 0 -29 -60 -137 -103 -184 -73 -81 -213 -142 -306 -132 l-33 3 -79 200 c-43 109 -76 201 -73 204 3 3 126 15 274 27 l269 22 151 -43 151 -42 192 47 c106 26 195 48 199 49 4 1 39 -19 78 -44z m-450 -369 c0 -2 -95 -80 -212 -172 -247 -196 -249 -178 15 -189 92 -4 167 -9 167 -11 0 -2 -20 -34 -44 -71 -24 -38 -43 -69 -41 -71 2 -2 65 8 140 23 76 14 143 25 151 23 10 -2 5 -22 -21 -78 -19 -41 -32 -76 -30 -79 9 -9 167 -31 288 -41 259 -21 480 26 661 140 l65 41 241 -49 c133 -28 243 -52 246 -54 2 -3 -5 -31 -16 -64 l-21 -60 -71 24 c-81 27 -221 39 -307 25 l-53 -8 -27 -82 c-29 -89 -64 -139 -132 -192 -55 -42 -62 -27 -25 54 32 71 76 135 148 217 32 36 58 69 58 72 0 3 -31 -11 -70 -29 -113 -56 -229 -86 -360 -92 -103 -5 -120 -9 -167 -35 -45 -25 -61 -29 -118 -27 -65 2 -67 2 -93 -32 -43 -56 -70 -79 -130 -115 -48 -29 -65 -34 -119 -34 -73 0 -80 12 -40 71 26 40 87 72 178 95 l67 16 -161 55 c-351 120 -537 225 -592 336 -30 60 -31 79 -6 133 39 86 115 140 301 216 114 46 130 52 130 44z m712 -272 c37 -19 63 -72 54 -110 -4 -15 -27 -47 -50 -71 -35 -35 -50 -43 -80 -43 -39 0 -62 24 -119 130 -16 30 -42 59 -63 72 -29 17 -33 23 -22 36 11 12 32 14 132 8 74 -4 129 -12 148 -22z"></path><path d="M6490 6902 c-21 -10 -44 -34 -59 -60 -18 -35 -28 -43 -44 -38 -24 6 -72 -17 -80 -39 -11 -26 -36 -16 -51 20 -14 33 -52 55 -74 41 -6 -3 -25 0 -43 8 -19 7 -62 17 -97 20 -57 6 -64 5 -85 -17 -12 -13 -34 -31 -48 -40 -25 -16 -26 -16 -50 9 -50 53 -110 69 -129 34 -13 -25 -9 -141 5 -138 6 2 8 26 7 56 -6 86 27 100 87 38 l31 -32 -36 -18 c-25 -12 -34 -20 -27 -27 7 -7 21 -5 44 6 32 17 33 17 50 -4 26 -32 37 -26 50 24 9 34 19 50 40 60 56 30 77 11 88 -79 8 -67 26 -66 66 1 16 29 34 53 38 53 5 0 22 -9 38 -20 22 -17 30 -31 35 -70 4 -28 10 -50 15 -50 5 0 18 18 29 40 16 32 26 40 48 40 15 0 33 5 40 12 9 9 12 -4 12 -59 0 -103 27 -123 100 -73 14 9 32 19 41 23 40 14 56 -61 17 -78 -44 -19 -33 -42 62 -140 51 -51 105 -99 121 -105 16 -7 29 -16 29 -21 0 -17 37 -9 56 12 35 39 50 41 105 18 43 -19 56 -21 81 -11 28 10 30 9 43 -21 7 -18 16 -49 20 -69 4 -21 11 -38 16 -38 15 0 10 58 -11 112 -11 28 -18 54 -16 56 2 2 37 -9 78 -23 92 -34 118 -40 118 -28 0 12 -124 62 -174 70 -27 4 -41 13 -51 34 -28 53 -59 48 -171 -31 -32 -22 -60 -40 -64 -40 -4 0 -10 25 -13 56 -10 100 -39 120 -127 89 -23 -8 -44 -15 -46 -15 -2 0 -4 18 -4 40 0 37 2 39 38 46 82 14 105 58 82 156 -26 107 -85 197 -140 213 -14 3 -32 8 -40 11 -8 2 -31 -4 -50 -14z m107 -31 c44 -27 94 -135 100 -215 2 -34 0 -67 -5 -74 -5 -8 -28 -16 -51 -19 -34 -5 -41 -3 -41 11 0 32 -30 76 -51 76 -12 0 -43 -12 -70 -27 -61 -35 -69 -27 -69 70 0 56 5 75 26 110 57 92 95 108 161 68z"></path><path d="M3980 6811 c-162 -164 -297 -274 -525 -426 -201 -134 -342 -216 -520 -301 -297 -143 -525 -213 -722 -221 -118 -5 -121 -6 -126 -29 -6 -33 21 -39 131 -30 394 32 976 304 1492 697 140 106 314 263 394 354 56 64 59 68 41 81 -10 8 -21 13 -24 13 -3 -1 -67 -63 -141 -138z"></path><path d="M7251 6936 c-25 -30 211 -264 449 -446 400 -305 865 -549 1225 -643 121 -32 272 -51 330 -43 37 6 42 9 38 30 -5 22 -9 24 -121 29 -203 9 -417 76 -727 227 -401 195 -783 465 -1053 744 -61 64 -116 116 -121 116 -5 0 -14 -6 -20 -14z"></path><path d="M5923 4123 c-23 -49 -79 -77 -204 -102 -53 -11 -114 -27 -137 -36 -39 -16 -102 -74 -102 -95 0 -4 -3 -15 -6 -24 -4 -12 0 -16 15 -16 14 0 25 11 35 34 20 47 69 70 210 100 161 34 213 67 236 147 13 46 -24 39 -47 -8z"></path><path d="M5940 3864 c-20 -59 -68 -84 -232 -119 -86 -18 -132 -44 -166 -95 -25 -37 -25 -63 -2 -68 10 -2 20 10 28 32 18 48 61 72 188 101 124 29 180 57 205 100 29 52 32 72 10 78 -16 4 -23 -2 -31 -29z"></path><path d="M5930 3585 c-18 -55 -57 -79 -177 -109 -126 -32 -165 -55 -195 -115 -17 -36 -18 -45 -7 -52 21 -13 26 -11 33 14 12 48 45 76 114 96 37 10 95 27 129 36 34 10 76 30 93 44 29 25 63 97 53 113 -11 19 -32 5 -43 -27z"></path><path d="M5910 3299 c0 -25 -32 -76 -58 -91 -16 -9 -64 -26 -107 -38 -103 -28 -148 -53 -174 -100 -26 -46 -27 -70 -3 -70 10 0 23 15 33 39 20 47 60 70 167 96 107 26 164 71 178 143 6 28 4 32 -15 32 -11 0 -21 -5 -21 -11z"></path><path d="M5900 3039 c0 -58 -60 -104 -168 -129 -86 -20 -148 -74 -154 -135 -4 -42 28 -48 37 -6 11 51 50 79 155 111 79 24 104 37 128 64 30 35 49 87 37 106 -11 18 -35 11 -35 -11z"></path><path d="M5863 2739 c-9 -47 -52 -82 -132 -107 -91 -28 -117 -46 -142 -93 -25 -49 -25 -79 0 -79 12 0 20 9 24 28 10 51 44 80 118 103 108 33 155 74 173 152 5 23 3 27 -14 27 -15 0 -22 -8 -27 -31z"></path><path d="M5870 2480 c0 -37 -30 -79 -70 -100 -21 -11 -45 -20 -53 -20 -7 0 -37 -12 -65 -26 -38 -19 -58 -37 -72 -65 -26 -49 -26 -79 -1 -79 14 0 21 10 25 35 8 42 40 68 109 91 86 28 125 54 147 99 26 54 26 85 0 85 -13 0 -20 -7 -20 -20z"></path><path d="M5870 2181 c-13 -49 -43 -74 -124 -101 -72 -24 -119 -67 -134 -122 -6 -20 -7 -39 -4 -42 15 -16 32 -2 42 32 13 50 33 67 104 92 106 36 140 69 160 153 5 22 3 27 -13 27 -15 0 -23 -10 -31 -39z"></path><path d="M5877 1914 c-8 -51 -39 -79 -117 -109 -73 -28 -111 -62 -129 -114 -15 -46 -14 -51 8 -51 14 0 23 12 33 43 14 44 16 46 153 109 39 18 55 32 73 68 28 55 29 90 3 90 -13 0 -20 -10 -24 -36z"></path><path d="M5880 1632 c-13 -49 -42 -76 -111 -101 -64 -24 -105 -63 -119 -112 -14 -48 -13 -59 9 -59 13 0 21 9 25 33 10 53 31 74 106 102 77 29 113 64 130 123 13 50 13 52 -10 52 -14 0 -22 -10 -30 -38z"></path></g></svg>